# xmcd
# Copyright (C) 1995-1998 Ti Kan
#
# Track frame offsets:
#       150
#       7370
#       24904
#       37329
#       51102
#       66201
#       75702
#       91273
#       106292
#       127447
#
# Disc length: 2012 seconds
#
# Revision: 0
# Processed by: cddbd v1.5.2PL0 Copyright (c) Steve Scherf et al.
# Submitted via: CD-Import v1.0
#
DISCID=8a07da0a
DTITLE=Mañana - Interruptions
DYEAR=2008
DGENRE=
TTITLE0=Loyalty
TTITLE1=Unbalance
TTITLE2=Make A Tiger
TTITLE3=Broken Solid Side (To Be)
TTITLE4=Monster
TTITLE5=Red
TTITLE6=Elephant
TTITLE7=Little Lights
TTITLE8=Berliner Blau
TTITLE9=Roadside Museum
EXTD=
EXTT0=
EXTT1=
EXTT2=
EXTT3=
EXTT4=
EXTT5=
EXTT6=
EXTT7=
EXTT8=
EXTT9=
PLAYORDER=
